<svg class="svg-icon" style="width: 1em;height: 1em;vertical-align: middle;fill: currentColor;overflow: hidden;" viewBox="0 0 1024 1024" version="1.1" xmlns="http://www.w3.org/2000/svg"><path d="M599.505455 524.567273a34.909091 34.909091 0 0 0-34.909091-34.909091H277.410909a34.909091 34.909091 0 0 0 0 69.818182h287.185455a34.909091 34.909091 0 0 0 34.909091-34.909091zM496.64 655.825455h-219.229091a34.909091 34.909091 0 0 0 0 69.818181h219.229091a34.909091 34.909091 0 0 0 0-69.818181z"  /><path d="M475.694545 874.821818H145.687273a31.650909 31.650909 0 0 1-30.952728-32.116363V175.010909a31.650909 31.650909 0 0 1 30.952728-32.116364H581.818182V232.727273a103.563636 103.563636 0 0 0 103.563636 103.563636h116.363637v64.232727a34.909091 34.909091 0 1 0 69.818181 0v-134.050909a34.210909 34.210909 0 0 0-10.007272-23.272727l-157.323637-159.883636a34.909091 34.909091 0 0 0-24.901818-10.24H145.687273a101.469091 101.469091 0 0 0-100.770909 101.934545v667.694546a101.469091 101.469091 0 0 0 100.770909 101.934545h330.007272a34.909091 34.909091 0 0 0 0-69.818182z m310.225455-608.814545h-101.003636A33.745455 33.745455 0 0 1 651.636364 232.727273V142.894545h13.730909z"  /><path d="M875.52 738.443636a134.283636 134.283636 0 1 0-189.672727 0 148.712727 148.712727 0 0 0-98.676364 148.247273c0 57.018182 83.781818 57.018182 199.912727 57.018182h69.818182c49.338182 0 83.316364-2.792727 102.865455-23.272727a47.709091 47.709091 0 0 0 14.429091-35.141819c-0.930909-72.378182-35.141818-123.112727-98.676364-146.850909z m-95.185455-170.821818a76.334545 76.334545 0 1 1-76.334545 76.101818 76.334545 76.334545 0 0 1 76.334545-76.101818z m44.916364 319.069091h-38.167273a730.065455 730.065455 0 0 1-141.498181-7.912727c4.887273-79.825455 75.170909-97.047273 134.74909-97.047273 116.363636 0 133.585455 56.32 134.749091 101.003636a406.807273 406.807273 0 0 1-89.832727 3.956364z"  /></svg>