<svg class="svg-icon" style="width: 1em; height: 1em;vertical-align: middle;fill: currentColor;overflow: hidden;" viewBox="0 0 1024 1024" version="1.1" xmlns="http://www.w3.org/2000/svg"><path d="M65.090461 127.584794l0 768.82939 893.819079 0L958.909539 127.584794 65.090461 127.584794zM908.126946 844.657402 115.9058 844.657402l0-655.048997L908.126946 189.608406 908.126946 844.657402z"  /><path d="M301.136501 430.196903l-101.551884 0 0-99.100042 101.551884 0L301.136501 430.196903z"  /><path d="M834.209446 392.175961 334.880023 392.175961l0-20.400632 499.329423 0L834.209446 392.175961z"  /><path d="M301.136501 586.110905l-101.551884 0 0-99.100042 101.551884 0L301.136501 586.110905z"  /><path d="M834.209446 547.982516 334.880023 547.982516l0-20.273742 499.329423 0L834.209446 547.982516z"  /><path d="M301.136501 742.002394l-101.551884 0 0-99.141998 101.551884 0L301.136501 742.002394z"  /><path d="M834.209446 703.895495 334.880023 703.895495l0-20.314675 499.329423 0L834.209446 703.895495z"  /></svg>