<svg width="238" height="198" viewBox="0 0 238 198" fill="none" xmlns="http://www.w3.org/2000/svg">
<g filter="url(#filter0_f_4324_17703)">
<path d="M182.582 94.9314C182.582 105.539 211.698 123.797 204.66 146.554C196.332 173.487 151.053 194.642 128.712 194.642C104.794 194.642 79.1058 175.775 59.8295 146.554C45.8889 125.422 43.0503 65.646 43.0503 51.7944C43.0503 18.7895 87.4957 3 128.712 3C169.929 3 182.582 61.9266 182.582 94.9314Z" fill="#E3EBFC"/>
</g>
<g clip-path="url(#clip0_4324_17703)">
<path d="M81.106 132.115C81.106 136.099 84.9021 139.324 89.5935 139.324H143.723C148.406 139.324 152.209 136.099 152.209 132.115V67.157C152.209 63.176 148.406 59.9502 143.723 59.9502H89.5935C84.9036 59.9502 81.106 63.1745 81.106 67.157V132.115Z" fill="#BA9D93"/>
<path d="M81.106 127.034C81.106 131.015 84.9021 134.244 89.5935 134.244H143.723C148.406 134.244 152.209 131.015 152.209 127.034V62.073C152.209 58.092 148.406 54.8662 143.723 54.8662H89.5935C84.9036 54.8662 81.106 58.0906 81.106 62.073V127.034Z" fill="#E8E8E8"/>
<path d="M142.151 72.3248H106.663C104.274 72.3248 104.274 68.0645 106.663 68.0645H142.151C144.532 68.0645 144.532 72.3248 142.151 72.3248ZM142.151 80.9706H106.663C104.274 80.9706 104.274 76.7132 106.663 76.7132H142.151C144.532 76.7132 144.532 80.9706 142.151 80.9706ZM142.151 89.8172H106.663C104.274 89.8172 104.274 85.5569 106.663 85.5569H142.151C144.532 85.5569 144.532 89.8172 142.151 89.8172ZM142.151 98.4601H106.663C104.274 98.4601 104.274 94.1998 106.663 94.1998H142.151C144.532 94.1998 144.532 98.4601 142.151 98.4601ZM142.151 115.149H125.817C123.435 115.149 123.435 110.889 125.817 110.889H142.151C144.532 110.889 144.532 115.149 142.151 115.149Z" fill="#424543"/>
<path d="M96.8878 67.1792V71.9879H92.1083V67.1792H96.8878ZM96.8878 66.4922H92.1083C91.7328 66.4922 91.4255 66.8013 91.4255 67.1792V71.9879C91.4255 72.3657 91.7328 72.6749 92.1083 72.6749H96.8878C97.2633 72.6749 97.5705 72.3657 97.5705 71.9879V67.1792C97.5705 66.8013 97.2633 66.4922 96.8878 66.4922Z" fill="black"/>
<path d="M153.573 51.6782H80.4219C79.8102 51.6782 79.3083 51.7728 79.3083 51.879V69.9956C79.3083 70.1018 79.8102 70.1935 80.4219 70.1935C95.3159 70.1935 144.082 64.8434 153.573 64.8434C153.826 64.8479 154.08 64.8294 154.329 64.7881C154.329 64.7881 154.341 64.7852 154.348 64.7793C154.348 64.7793 154.373 64.7793 154.383 64.7764C154.561 64.7488 154.674 64.7037 154.674 64.6455V51.879C154.674 51.7728 154.173 51.6782 153.573 51.6782Z" fill="#B4B1B1"/>
<path d="M153.573 50.1094H80.4219C79.8102 50.1094 79.3083 50.2025 79.3083 50.3102V68.4268C79.3083 68.533 79.8102 68.6247 80.4219 68.6247C95.3159 68.6247 144.082 63.2745 153.573 63.2745C153.826 63.2791 154.08 63.2606 154.329 63.2192C154.329 63.2192 154.341 63.2163 154.348 63.2105C154.348 63.2105 154.373 63.2105 154.383 63.2076C154.561 63.1799 154.674 63.1348 154.674 63.0766V50.3116C154.674 50.2025 154.173 50.1094 153.573 50.1094Z" fill="#E8E8E8"/>
<path d="M115.857 117.274C115.857 122.849 111.217 127.369 105.478 127.369C99.7501 127.369 95.105 122.851 95.105 117.274C95.105 111.697 99.7486 107.179 105.478 107.179C111.215 107.179 115.857 111.698 115.857 117.274Z" fill="#25A75C"/>
<path d="M156.364 141.805H77.6786C77.0206 141.805 76.4827 141.69 76.4827 141.56V119.062C76.4827 118.928 77.0206 118.816 77.6786 118.816C93.7021 118.816 146.154 125.463 156.364 125.463C156.72 125.463 156.996 125.487 157.181 125.529C157.181 125.529 157.192 125.532 157.2 125.538C157.225 125.538 157.225 125.538 157.239 125.544C157.43 125.575 157.553 125.634 157.553 125.705V141.56C157.553 141.69 157.014 141.805 156.364 141.805Z" fill="#B4B1B1"/>
<path d="M155.207 143.333H76.5071C75.8505 143.333 75.3154 143.233 75.3154 143.118V123.753C75.3154 123.638 75.8505 123.541 76.5071 123.541C92.5306 123.541 144.983 129.262 155.193 129.262C155.486 129.256 155.778 129.28 156.066 129.332C156.251 129.362 156.379 129.412 156.379 129.474V143.118C156.379 143.233 155.836 143.333 155.193 143.333" fill="#E8E8E8"/>
<g clip-path="url(#clip1_4324_17703)">
<path d="M96.205 75.6499H92.7911C92.0369 75.6499 91.4255 76.265 91.4255 77.0238V80.4587C91.4255 81.2175 92.0369 81.8326 92.7911 81.8326H96.205C96.9592 81.8326 97.5705 81.2175 97.5705 80.4587V77.0238C97.5705 76.265 96.9592 75.6499 96.205 75.6499Z" stroke="#25A75C" stroke-width="0.610637" stroke-linecap="round" stroke-linejoin="round"/>
<path d="M93.4739 78.7412L94.242 79.4281L95.5222 78.0542" stroke="#25A75C" stroke-width="0.610637" stroke-linecap="round" stroke-linejoin="round"/>
</g>
<path d="M96.205 84.8115H92.7911C92.0369 84.8115 91.4255 85.4267 91.4255 86.1855V89.6203C91.4255 90.3791 92.0369 90.9942 92.7911 90.9942H96.205C96.9592 90.9942 97.5705 90.3791 97.5705 89.6203V86.1855C97.5705 85.4267 96.9592 84.8115 96.205 84.8115Z" stroke="black" stroke-width="0.610637" stroke-linecap="round" stroke-linejoin="round"/>
<path d="M96.205 93.9697H92.7911C92.0369 93.9697 91.4255 94.5849 91.4255 95.3437V98.7785C91.4255 99.5373 92.0369 100.152 92.7911 100.152H96.205C96.9592 100.152 97.5705 99.5373 97.5705 98.7785V95.3437C97.5705 94.5849 96.9592 93.9697 96.205 93.9697Z" stroke="black" stroke-width="0.610637" stroke-linecap="round" stroke-linejoin="round"/>
</g>
<path fill-rule="evenodd" clip-rule="evenodd" d="M186.544 74.2385C188.397 72.959 189.893 71.1812 190.338 68.8559C191.622 62.1562 182.109 61.1309 179.453 63.9687C176.798 66.8065 174.776 75.2815 176.914 76.496C177.767 76.9803 179.87 76.9288 182.173 76.2669L178.584 84.7646L185.939 86.7559L186.544 74.2385Z" fill="#915B3C"/>
<path fill-rule="evenodd" clip-rule="evenodd" d="M178.377 65.2639C178.564 64.8536 178.869 64.4242 179.12 64.0562C179.444 63.5818 179.85 63.1847 180.276 62.8224C181.078 62.1402 181.975 61.5707 182.91 61.1495C184.617 60.3803 186.579 60.2006 188.278 60.8905C189.135 61.2389 189.906 61.811 190.488 62.5741C191.014 63.2635 191.451 64.187 192.294 64.4728C193.211 64.7836 194.285 64.1886 195.168 63.8806C196.164 63.5333 197.172 63.3568 198.201 63.4603C199.924 63.6338 201.326 64.613 202.103 66.2802C202.93 68.0543 203.246 70.414 201.942 72.1159C201.7 72.4323 201.43 72.6813 201.091 72.8565C200.78 73.0172 200.333 73.1568 200.135 73.4941C199.924 73.8528 200.113 74.4401 200.145 74.8238C200.191 75.3734 200.198 75.9394 200.001 76.4701C199.678 77.3418 198.891 78.0446 198.143 78.4728C197.382 78.9085 196.55 79.0514 195.717 78.9956C195.16 78.9584 194.605 78.8707 194.078 78.6858C193.817 78.594 193.601 78.4561 193.359 78.3271C193.123 78.2017 192.965 78.2307 192.715 78.3113C191.554 78.6861 190.424 78.6469 189.306 78.2422C188.363 77.9007 187.313 77.3653 186.702 76.4889C186.024 75.5156 186.311 74.5041 186.805 73.4739C186.558 73.5234 185.938 73.4275 186.413 73.0928C186.601 72.9603 186.889 72.9636 187.099 72.9124C187.343 72.8529 187.6 72.7599 187.816 72.6135C188.689 72.0224 188.431 70.2689 187.66 69.7828C186.514 69.0607 185.764 70.7573 184.751 70.9747C184.168 71.0998 183.728 70.5946 183.442 70.1229C183.058 69.4911 182.881 68.7435 182.755 67.9973C182.651 67.3828 182.566 66.7653 182.457 66.1523C182.406 65.866 182.186 65.0363 182.469 64.8046C181.622 64.3839 180.527 64.4876 179.627 64.7685C179.255 64.8846 178.953 65.0419 178.689 65.353C178.632 65.4196 178.492 65.6256 178.39 65.608C178.201 65.5754 178.33 65.367 178.377 65.2639Z" fill="#191847"/>
<path fill-rule="evenodd" clip-rule="evenodd" d="M193.969 143.519C186.377 145.656 179.827 146.724 174.318 146.724C168.81 146.724 163.694 145.079 158.969 141.789C166.399 139.596 172.517 138.5 177.325 138.5C182.132 138.5 187.68 140.173 193.969 143.519Z" fill="#1F28CF"/>
<path fill-rule="evenodd" clip-rule="evenodd" d="M167.746 149.804C167.819 149.693 167.881 149.572 167.93 149.442C168.945 146.742 185.199 117.612 186.819 112.287H168.518C167.287 116.336 161.746 141.746 160.966 146.816C158.505 154.813 153.439 180.713 152.792 182.507C152.112 184.394 155.94 186.361 156.96 184.04C158.583 180.348 162.451 170.132 164.173 163.894C165.787 158.045 167.102 152.784 167.746 149.804Z" fill="#784931"/>
<path fill-rule="evenodd" clip-rule="evenodd" d="M182.718 153.36C190.15 155.25 217.332 158.666 219.197 159.202C221.116 159.753 222.799 155.774 220.427 154.912C216.653 153.54 206.254 150.371 199.949 149.078C194.877 148.037 190.25 147.188 187.143 146.691C187.406 137.911 188.609 116.838 187.821 112.287H171.628C172.384 116.651 178.777 148.496 179.965 151.684C180.342 152.822 181.468 153.325 182.718 153.36Z" fill="#915B3C"/>
<path fill-rule="evenodd" clip-rule="evenodd" d="M220.246 153.854C221.24 153.669 221.969 153.618 222.432 153.7C222.995 153.801 223.8 154.041 224.847 154.422C224.733 155.077 223.704 160.971 221.76 172.102C220.166 172.292 219.396 171.881 219.448 170.87C219.5 169.859 219.535 169.017 219.552 168.345L217.338 159.478C217.295 159.307 217.398 159.134 217.568 159.092C217.571 159.091 217.574 159.09 217.577 159.09L218.946 158.789C219.532 157.948 219.875 157.241 219.975 156.669C220.056 156.203 219.981 155.527 219.75 154.64L219.75 154.64C219.661 154.3 219.863 153.952 220.202 153.864C220.217 153.86 220.232 153.856 220.246 153.854Z" fill="#E4E4E4"/>
<path fill-rule="evenodd" clip-rule="evenodd" d="M158.122 183.739C158.476 184.69 158.653 185.402 158.653 185.874C158.653 186.448 158.558 187.286 158.368 188.388C157.706 188.388 151.756 188.388 140.518 188.388C140.054 186.845 140.322 186.012 141.321 185.889C142.321 185.766 143.151 185.655 143.812 185.556L152.108 181.834C152.268 181.763 152.455 181.835 152.526 181.995C152.527 181.998 152.528 182.001 152.53 182.004L153.063 183.305C153.988 183.74 154.74 183.957 155.318 183.957C155.788 183.957 156.437 183.766 157.265 183.384L157.265 183.384C157.583 183.237 157.959 183.378 158.104 183.697C158.111 183.711 158.116 183.725 158.122 183.739Z" fill="#E4E4E4"/>
<path fill-rule="evenodd" clip-rule="evenodd" d="M187.768 112.287C180.633 110.233 173.882 110.233 167.514 112.287C165.299 122.456 159.916 126.492 158.969 142.084C169.729 147.463 183.021 138.247 194.098 143.493C197.263 136.155 192.832 118.484 187.768 112.287Z" fill="#2B44FF"/>
<path fill-rule="evenodd" clip-rule="evenodd" d="M170.901 91.3218L161.116 83.4396C159.691 80.9722 158.208 78.989 156.668 77.4901C156.174 77.1712 155.264 76.8694 155.865 78.5812C156.466 80.293 157.022 82.1205 156.494 82.5208C155.965 82.921 154.973 82.0537 154.304 82.7558C153.857 83.2239 155.606 84.4003 159.549 86.2851L166.152 94.9188L170.901 91.3218ZM153.071 93.326L148.774 89.8558C148.552 87.1874 147.978 85.7625 147.053 85.5813C146.399 85.1213 147.078 88.564 145.775 88.044C144.473 87.5239 141.605 84.4731 140.949 84.8721C139.979 85.4623 140.332 87.8679 141.018 89.1555C142.3 91.5619 143.541 92.5278 146.754 94.0754C148.434 94.8846 150.17 96.2161 151.964 98.07L153.071 93.326Z" fill="#915B3C"/>
<path fill-rule="evenodd" clip-rule="evenodd" d="M176.393 90.9249C172.61 90.2093 167.696 88.5044 162.903 84.1039L159.957 88.4721C163.03 92.8442 167.729 96.8238 172.325 97.5097C175.947 98.0502 178.553 93.9981 176.393 90.9249Z" fill="#2026A2"/>
<path fill-rule="evenodd" clip-rule="evenodd" d="M169.952 97.6326C165.75 97.924 159.206 95.5322 150.321 90.4574C147.118 94.9229 145.424 98.2114 145.238 100.323C152.623 106.036 159.259 109.179 164.977 110.327C164.197 113.715 164.044 117.044 164.917 120.267C166.713 126.892 184.467 124.215 189.91 126.334C195.45 115.448 189.441 109.552 190.721 102.183C192.124 94.1138 187.841 80.5454 186.892 80.3763L178.237 78.8347C176.684 84.9118 173.095 91.2748 169.952 97.6326Z" fill="#1F28CF"/>
<path fill-rule="evenodd" clip-rule="evenodd" d="M56.449 76.4573C54.9907 74.735 54.0037 72.6244 54.1687 70.2594C54.6439 63.4452 64.0717 64.9442 65.9056 68.3835C67.7395 71.8227 67.5216 80.5466 65.1514 81.1613C64.2062 81.4065 62.1926 80.806 60.1433 79.5632L61.4296 88.7194H53.8342L56.449 76.4573Z" fill="#57331F"/>
<path fill-rule="evenodd" clip-rule="evenodd" d="M60.5228 71.0116C60.8135 75.0864 61.5826 77.1239 62.83 77.1239C64.7013 77.1239 66.2889 75.9286 67.11 75.9286C67.7085 75.9286 67.5748 76.6822 67.1781 77.241C66.8508 77.7019 65.2568 78.1463 65.2568 78.8609C65.2568 79.5756 66.5162 79.0227 66.5162 79.4465C66.5162 80.1477 66.7375 81.4659 65.5281 81.4659C64.3041 81.4659 60.7948 81.0171 60.1934 79.1893C59.8052 78.0098 59.5543 75.5655 59.4405 71.8565C59.3662 71.8476 59.2907 71.843 59.2141 71.843C58.1654 71.843 57.3152 72.6984 57.3152 73.7535C57.3152 74.2892 57.5343 74.7733 57.8872 75.1202C57.4479 75.7442 56.9555 76.396 56.3912 77.0686C54.2715 75.7891 52.6985 72.0433 54.7709 68.445C55.3437 66.6822 56.6405 65.7407 58.172 65.3035C59.4126 64.7814 60.7005 64.7225 61.7876 65.0355C63.9187 65.2194 65.8217 65.8732 66.361 66.2615C66.361 68.2915 65.9701 68.8938 62.631 68.8407C61.8105 69.2767 61.1797 70.0274 60.5228 71.0116Z" fill="#191847"/>
<path fill-rule="evenodd" clip-rule="evenodd" d="M53.2244 115.069L68.7574 154.625L79.1755 188.066H83.2894L67.3624 115.069L53.2244 115.069Z" fill="#3D2216"/>
<path fill-rule="evenodd" clip-rule="evenodd" d="M50.0965 115.069C49.9311 128.969 47.5189 147.683 47.1335 148.55C46.8765 149.127 38.007 156.473 20.5249 170.587L23.3584 173.638C43.9856 161.537 54.7766 154.679 55.7311 153.066C57.1629 150.645 61.8243 128.367 65.5668 115.069H50.0965Z" fill="#57331F"/>
<path fill-rule="evenodd" clip-rule="evenodd" d="M20.1484 169.569C19.1963 169.908 18.5404 170.229 18.1807 170.533C17.7432 170.902 17.1659 171.515 16.4487 172.37C16.8741 172.88 20.6974 177.465 27.9187 186.124C29.3923 185.489 29.8549 184.747 29.3065 183.898C28.758 183.048 28.3092 182.337 27.96 181.764L25.4642 172.977C25.4162 172.808 25.241 172.711 25.0729 172.759C25.07 172.76 25.0671 172.761 25.0643 172.762L23.7299 173.188C22.8045 172.754 22.1559 172.315 21.7843 171.869C21.4823 171.507 21.2107 170.884 20.9696 170L20.9696 170C20.8771 169.661 20.5287 169.462 20.1915 169.555C20.177 169.559 20.1626 169.564 20.1484 169.569Z" fill="#E4E4E4"/>
<path fill-rule="evenodd" clip-rule="evenodd" d="M77.491 186.522C77.137 187.473 76.96 188.184 76.96 188.656C76.96 189.23 77.055 190.068 77.2452 191.17C77.9072 191.17 83.8571 191.17 95.0949 191.17C95.5587 189.627 95.291 188.794 94.2916 188.671C93.2922 188.548 92.462 188.437 91.801 188.338L83.5046 184.617C83.345 184.545 83.1579 184.617 83.0867 184.778C83.0855 184.78 83.0843 184.783 83.0832 184.786L82.5499 186.088C81.6248 186.522 80.873 186.739 80.2945 186.739C79.8246 186.739 79.1756 186.548 78.3475 186.166L78.3475 186.166C78.0298 186.02 77.6541 186.16 77.5084 186.48C77.5021 186.493 77.4963 186.507 77.491 186.522Z" fill="#E4E4E4"/>
<path fill-rule="evenodd" clip-rule="evenodd" d="M63.668 184.621L83.2275 182.485L68.7316 115.069H51.2129L63.668 184.621Z" fill="#69A1AC"/>
<path fill-rule="evenodd" clip-rule="evenodd" d="M24.5708 165.665L37.4007 180.944C50.9141 166.095 58.7925 156.405 61.0358 151.876C63.2791 147.347 65.2957 135.078 67.0856 115.069H47.3627C46.3849 132.672 45.7259 141.883 45.3855 142.702C45.0451 143.522 38.1069 151.176 24.5708 165.665Z" fill="#89C5CC"/>
<path fill-rule="evenodd" clip-rule="evenodd" d="M80.9078 111.121L89.8729 119.921C92.4814 121.04 94.6186 122.277 96.2847 123.629C96.6594 124.084 97.0673 124.955 95.3045 124.565C93.5416 124.176 91.67 123.845 91.3386 124.422C91.0073 124.999 91.9836 125.883 91.3713 126.638C90.963 127.141 89.5902 125.54 87.2527 121.835L77.9302 116.305L80.9078 111.121ZM37.0688 103.158L43.9987 103.184C38.7207 120.389 35.9189 129.397 35.5934 130.209C34.8611 132.035 36.4108 134.816 37.0735 136.31C34.9151 137.282 35.1451 133.683 32.4223 134.958C29.9372 136.121 28.0467 138.229 25.1754 136.446C24.8224 136.227 24.4356 135.402 25.3702 134.757C27.6988 133.151 31.0543 130.339 31.5077 129.414C32.126 128.152 33.9797 119.4 37.0688 103.158Z" fill="#57331F"/>
<path fill-rule="evenodd" clip-rule="evenodd" d="M58.1855 83.3786L60.9221 82.9064C65.2331 98.2387 87.3827 108.69 88.7424 114.421C89.241 116.523 87.7375 117.586 88.5142 118.226L84.9571 120.846C84.3548 120.139 83.0694 121.432 80.385 120.527C77.7007 119.623 58.1855 101.533 58.1855 83.3786Z" fill="#191847"/>
<path fill-rule="evenodd" clip-rule="evenodd" d="M62.7888 85.4169C62.4733 105.716 74.136 110.894 71.5382 119.037C69.393 125.761 48.8597 132.99 45.3066 126.398C43.8683 123.73 43.2158 120.503 43.1417 116.995C42.2336 119.69 41.5154 122.01 40.9871 123.956C40.0756 127.312 36.5422 127.845 36.5422 129.138L31.887 127.845C32.2028 126.089 30.0082 125.234 30.5966 121.31C33.2331 103.728 40.3169 90.9829 51.8479 83.0756L51.9672 81.3592C52.016 80.6575 52.6209 80.1284 53.3183 80.1775L61.8423 80.7772C62.5397 80.8263 63.0656 81.4349 63.0168 82.1366L62.7888 85.4169Z" fill="#2F3676"/>
<defs>
<filter id="filter0_f_4324_17703" x="40.3024" y="0.252136" width="168.203" height="197.137" filterUnits="userSpaceOnUse" color-interpolation-filters="sRGB">
<feFlood flood-opacity="0" result="BackgroundImageFix"/>
<feBlend mode="normal" in="SourceGraphic" in2="BackgroundImageFix" result="shape"/>
<feGaussianBlur stdDeviation="1.37393" result="effect1_foregroundBlur_4324_17703"/>
</filter>
<clipPath id="clip0_4324_17703">
<rect width="92.5544" height="93.1221" fill="white" transform="translate(69.5366 50.1094)"/>
</clipPath>
<clipPath id="clip1_4324_17703">
<rect width="8.19334" height="8.2436" fill="white" transform="translate(90.4014 74.6206)"/>
</clipPath>
</defs>
</svg>
