<svg width="33" height="32" viewBox="0 0 33 32" fill="none" xmlns="http://www.w3.org/2000/svg">
<path d="M17.8648 4.3999H23.3236V7.12931H17.8648V4.3999ZM4.21773 11.2234H9.67656V13.9528H4.21773V11.2234ZM4.21773 22.1411H9.67656V24.8705H4.21773V22.1411ZM2.85303 16.6823H8.2982V19.4117H2.85303V16.6823ZM29.7473 9.45887L27.8176 7.52917L25.488 9.85873C24.0116 8.96642 22.3194 8.49453 20.5942 8.49402C15.3278 8.49402 11.0413 12.7806 11.0413 18.047C11.0413 23.3134 15.3278 27.5999 20.5942 27.5999C25.8606 27.5999 30.1471 23.3134 30.1471 18.047C30.1458 15.6534 29.2418 13.3483 27.6156 11.5919L29.7473 9.45887ZM21.9589 19.4117H19.2295V12.5308H21.9589V19.4117Z" fill="#326FF0"/>
</svg>
